<svg width="13" height="13" viewBox="0 0 13 13" fill="none" xmlns="http://www.w3.org/2000/svg">
<path d="M4.75582 12.3933C4.77832 12.4113 4.79182 12.436 4.81544 12.4529C4.84919 12.4754 4.88744 12.4799 4.92344 12.4956C4.96619 12.5159 5.00782 12.535 5.05282 12.5474C5.09669 12.5586 5.13944 12.5643 5.18444 12.5676C5.24857 12.5744 5.31044 12.5744 5.37344 12.5654C5.39932 12.5609 5.42407 12.5541 5.44994 12.5474C5.52757 12.5283 5.59957 12.4979 5.67044 12.4551C5.68282 12.4473 5.69294 12.4383 5.70532 12.4304C5.75144 12.3989 5.80094 12.3753 5.84032 12.3325C5.86844 12.3021 5.88082 12.2628 5.90332 12.229C5.90444 12.2279 5.90669 12.2268 5.90669 12.2256L12.6106 1.48077C12.6671 1.3942 12.7061 1.29733 12.7253 1.19569C12.7444 1.09405 12.7434 0.989639 12.7221 0.888412C12.7009 0.787184 12.66 0.691125 12.6017 0.605718C12.5433 0.520312 12.4688 0.447231 12.3822 0.390647C12.2956 0.334064 12.1987 0.295087 12.0971 0.275941C11.9955 0.256795 11.8911 0.257856 11.7898 0.279063C11.6886 0.300269 11.5925 0.341206 11.5071 0.399537C11.4217 0.457867 11.3486 0.532448 11.2921 0.619022L5.10007 10.5426L1.67557 7.21152C1.5997 7.14135 1.51076 7.0868 1.41382 7.051C1.31687 7.0152 1.21383 6.99884 1.11056 7.00286C1.0073 7.00688 0.905839 7.03121 0.811974 7.07444C0.718109 7.11767 0.633679 7.17897 0.563504 7.25483C0.493329 7.3307 0.438783 7.41964 0.402981 7.51658C0.367179 7.61353 0.350822 7.71657 0.354844 7.81984C0.358866 7.9231 0.383188 8.02456 0.426422 8.11843C0.469655 8.21229 0.530953 8.29672 0.606816 8.3669L4.72657 12.3753C4.73444 12.3831 4.74569 12.3854 4.75582 12.3933Z" fill="#28C07E"/>
</svg>
