<svg width="176" height="45" viewBox="0 0 176 45" fill="none" xmlns="http://www.w3.org/2000/svg">
<path d="M36.3241 23.9636H22.6669V20.8313H36.3241V23.9636Z" fill="#3D464D"/>
<path d="M40.2936 22.3039C40.2936 31.8674 32.386 39.6484 22.6669 39.6484C12.9477 39.6484 5.04072 31.8674 5.04072 22.3039C5.04072 12.7404 12.9477 4.96 22.6669 4.96C30.7629 4.96 37.5975 10.3602 39.656 17.6911H44.8442C42.6785 7.59872 33.5592 0 22.6669 0C10.1684 0 0 10.0056 0 22.3039C0 34.6029 10.1684 44.6084 22.6669 44.6084C35.166 44.6084 45.3343 34.6029 45.3343 22.3039C45.3343 21.806 45.3123 21.3138 45.2789 20.8239H40.2249C40.2672 21.3119 40.2936 21.8048 40.2936 22.3039Z" fill="#0071DC"/>
<path d="M7.96118 22.3037C7.96118 30.2825 14.5589 36.7739 22.6669 36.7739C30.7755 36.7739 37.3726 30.2825 37.3726 22.3037C37.3726 21.804 37.3467 21.3104 37.2963 20.8238H34.0797C34.144 21.3092 34.1887 21.8009 34.1887 22.3037C34.1887 28.5558 29.0201 33.6417 22.6669 33.6417C16.3137 33.6417 11.1451 28.5558 11.1451 22.3037C11.1451 16.0523 16.3137 10.9664 22.6669 10.9664C27.3504 10.9664 31.3823 13.7341 33.1825 17.6909H36.602C34.6405 11.9677 29.1373 7.8335 22.6669 7.8335C14.5589 7.8335 7.96118 14.3249 7.96118 22.3037Z" fill="#3D464D"/>
<path d="M80.1866 18.4991V20.4097C80.1866 23.7425 79.1313 26.4068 77.0193 28.4023C74.9295 30.3766 72.268 31.3637 69.0361 31.3637C65.524 31.3637 62.6043 30.2492 60.2772 28.0202C57.9716 25.7911 56.8188 23.0526 56.8188 19.8046C56.8188 16.5567 57.9608 13.8075 60.2449 11.5572C62.5504 9.30702 65.3623 8.18188 68.6806 8.18188C70.7921 8.18188 72.7205 8.64893 74.466 9.58295C76.2329 10.517 77.6014 11.7483 78.5708 13.2768L74.1749 15.7606C73.6795 14.9963 72.936 14.3701 71.9451 13.8818C70.9758 13.3936 69.8768 13.1494 68.6483 13.1494C66.7306 13.1494 65.1361 13.7757 63.8648 15.0282C62.6151 16.2807 61.9902 17.8834 61.9902 19.8365C61.9902 21.7683 62.6366 23.3498 63.9295 24.5811C65.2223 25.7911 66.9461 26.3962 69.1008 26.3962C72.0962 26.3962 74.0246 25.2498 74.8866 22.9571H68.8423V18.4991H80.1866Z" fill="#3D464D"/>
<path d="M88.2737 26.0141H97.3238V30.918H83.1025V8.62769H97.1624V13.5316H88.2737V17.2253H96.3537V22.0655H88.2737V26.0141Z" fill="#3D464D"/>
<path d="M105.413 26.0141H113.493V30.918H100.242V8.62769H105.413V26.0141Z" fill="#3D464D"/>
<path d="M120.942 26.0141H129.992V30.918H115.771V8.62769H129.83V13.5316H120.942V17.2253H129.023V22.0655H120.942V26.0141Z" fill="#3D464D"/>
<path d="M151.886 28.0202C149.602 30.2492 146.822 31.3637 143.547 31.3637C140.272 31.3637 137.492 30.2492 135.208 28.0202C132.924 25.7911 131.782 23.042 131.782 19.7728C131.782 16.5035 132.924 13.7545 135.208 11.5254C137.492 9.29638 140.272 8.18188 143.547 8.18188C146.822 8.18188 149.602 9.29638 151.886 11.5254C154.17 13.7545 155.312 16.5035 155.312 19.7728C155.312 23.042 154.17 25.7911 151.886 28.0202ZM138.828 24.5493C140.099 25.7806 141.672 26.3962 143.547 26.3962C145.422 26.3962 146.984 25.7806 148.234 24.5493C149.505 23.318 150.14 21.7259 150.14 19.7728C150.14 17.8197 149.505 16.2276 148.234 14.9963C146.984 13.765 145.422 13.1494 143.547 13.1494C141.672 13.1494 140.099 13.765 138.828 14.9963C137.579 16.2276 136.954 17.8197 136.954 19.7728C136.954 21.7259 137.579 23.318 138.828 24.5493Z" fill="#3D464D"/>
<path d="M170.829 8.62769H176V30.918H172.122L163.395 18.8175V30.918H158.223V8.62769H162.102L170.829 20.7281V8.62769Z" fill="#3D464D"/>
<path d="M66.4553 37.6147H67.1374L65.052 42.8394C64.8636 43.3115 64.5939 43.6816 64.2431 43.9495C63.8988 44.2238 63.5122 44.345 63.0834 44.3131V43.7198C63.6681 43.7836 64.1132 43.4519 64.4185 42.7246L64.5452 42.428L62.3622 37.6147H63.0444L64.8765 41.6242L66.4553 37.6147Z" fill="#3D464D"/>
<path d="M72.0075 37.6147V42.3993H71.3645V38.2272H68.5579V42.3993H67.9148V37.6147H72.0075Z" fill="#3D464D"/>
<path d="M77.5585 37.6148H78.2015V42.3994H77.5585V41.4616C77.1102 42.1634 76.454 42.5142 75.5899 42.5142C74.8949 42.5142 74.3004 42.2718 73.8063 41.7869C73.3192 41.3021 73.0753 40.7088 73.0753 40.0071C73.0753 39.3054 73.3192 38.7121 73.8063 38.2272C74.3004 37.7424 74.8949 37.5 75.5899 37.5C76.454 37.5 77.1102 37.8509 77.5585 38.5526V37.6148ZM74.2741 41.3564C74.6448 41.72 75.0993 41.9018 75.6384 41.9018C76.1782 41.9018 76.6327 41.72 77.0028 41.3564C77.3735 40.9863 77.5585 40.5366 77.5585 40.0071C77.5585 39.4776 77.3735 39.031 77.0028 38.6674C76.6327 38.2975 76.1782 38.1124 75.6384 38.1124C75.0993 38.1124 74.6448 38.2975 74.2741 38.6674C73.904 39.031 73.719 39.4776 73.719 40.0071C73.719 40.5366 73.904 40.9863 74.2741 41.3564Z" fill="#3D464D"/>
<path d="M83.501 42.3993H82.6432L80.2069 40.0932V42.3993H79.5638V37.6147H80.2069V39.7295L82.5261 37.6147H83.4033L80.8887 39.9113L83.501 42.3993Z" fill="#3D464D"/>
<path d="M87.9771 41.7965C87.4831 42.275 86.8789 42.5142 86.1645 42.5142C85.4501 42.5142 84.8424 42.275 84.3421 41.7965C83.8481 41.3117 83.6014 40.7152 83.6014 40.0071C83.6014 39.299 83.8481 38.7057 84.3421 38.2272C84.8424 37.7424 85.4501 37.5 86.1645 37.5C86.8789 37.5 87.4831 37.7424 87.9771 38.2272C88.4774 38.7057 88.7276 39.299 88.7276 40.0071C88.7276 40.7152 88.4774 41.3117 87.9771 41.7965ZM84.8001 41.3564C85.1701 41.72 85.6254 41.9018 86.1645 41.9018C86.7036 41.9018 87.1588 41.72 87.5288 41.3564C87.8988 40.9863 88.0845 40.5366 88.0845 40.0071C88.0845 39.4776 87.8988 39.031 87.5288 38.6674C87.1588 38.2975 86.7036 38.1124 86.1645 38.1124C85.6254 38.1124 85.1701 38.2975 84.8001 38.6674C84.4301 39.031 84.2444 39.4776 84.2444 40.0071C84.2444 40.5366 84.4301 40.9863 84.8001 41.3564Z" fill="#3D464D"/>
<path d="M92.9031 39.94C93.4359 40.1314 93.702 40.5046 93.702 41.0596C93.702 41.4488 93.5689 41.7709 93.3022 42.0261C93.0423 42.2749 92.6661 42.3993 92.172 42.3993H89.8036V37.6147H91.9773C92.4513 37.6147 92.8185 37.736 93.0784 37.9784C93.3382 38.2144 93.4685 38.5206 93.4685 38.897C93.4685 39.3755 93.28 39.7231 92.9031 39.94ZM91.9773 38.2272H90.4474V39.6817H91.9773C92.5421 39.6817 92.8248 39.4329 92.8248 38.9353C92.8248 38.712 92.7499 38.5398 92.601 38.4185C92.4582 38.291 92.2496 38.2272 91.9773 38.2272ZM92.172 41.7869C92.4582 41.7869 92.6758 41.7199 92.8248 41.5859C92.9807 41.452 93.059 41.2638 93.059 41.0214C93.059 40.7981 92.9807 40.6227 92.8248 40.4951C92.6758 40.3611 92.4582 40.2941 92.172 40.2941H90.4474V41.7869H92.172Z" fill="#3D464D"/>
<path d="M98.7596 41.7965C98.2662 42.275 97.662 42.5142 96.9476 42.5142C96.2325 42.5142 95.6248 42.275 95.1246 41.7965C94.6312 41.3117 94.3845 40.7152 94.3845 40.0071C94.3845 39.299 94.6312 38.7057 95.1246 38.2272C95.6248 37.7424 96.2325 37.5 96.9476 37.5C97.662 37.5 98.2662 37.7424 98.7596 38.2272C99.2599 38.7057 99.51 39.299 99.51 40.0071C99.51 40.7152 99.2599 41.3117 98.7596 41.7965ZM95.5826 41.3564C95.9533 41.72 96.4078 41.9018 96.9476 41.9018C97.4867 41.9018 97.9413 41.72 98.312 41.3564C98.682 40.9863 98.867 40.5366 98.867 40.0071C98.867 39.4776 98.682 39.031 98.312 38.6674C97.9413 38.2975 97.4867 38.1124 96.9476 38.1124C96.4078 38.1124 95.9533 38.2975 95.5826 38.6674C95.2126 39.031 95.0275 39.4776 95.0275 40.0071C95.0275 40.5366 95.2126 40.9863 95.5826 41.3564Z" fill="#3D464D"/>
<path d="M103.649 37.6147H104.292V42.3993H103.649V40.5812C103.272 40.7726 102.808 40.8683 102.255 40.8683C101.618 40.8683 101.131 40.7247 100.793 40.4376C100.462 40.1442 100.296 39.7136 100.296 39.1458V37.6147H100.939V39.1458C100.939 39.5477 101.047 39.838 101.262 40.0166C101.476 40.1888 101.801 40.275 102.236 40.275C102.742 40.275 103.214 40.1825 103.649 39.9975V37.6147Z" fill="#3D464D"/>
<path d="M109.109 37.6147H109.752V42.3993H109.109V40.3133H106.303V42.3993H105.659V37.6147H106.303V39.7008H109.109V37.6147Z" fill="#3D464D"/>
<path d="M113.09 39.4329C113.546 39.4329 113.929 39.5732 114.241 39.8539C114.559 40.1283 114.718 40.4823 114.718 40.9161C114.718 41.3499 114.559 41.7072 114.241 41.9879C113.929 42.2622 113.546 42.3993 113.09 42.3993H111.112V37.6147H111.756V39.4329H113.09ZM115.401 37.6147H116.044V42.3993H115.401V37.6147ZM113.09 41.7869C113.363 41.7869 113.594 41.7072 113.783 41.5477C113.977 41.3882 114.075 41.1777 114.075 40.9161C114.075 40.6546 113.977 40.444 113.783 40.2845C113.594 40.1251 113.363 40.0453 113.09 40.0453H111.756V41.7869H113.09Z" fill="#3D464D"/>
<path d="M119.664 37.5C120.385 37.5 120.967 37.752 121.408 38.2559C121.856 38.7535 122.081 39.3436 122.081 40.0263C122.081 40.0964 122.074 40.1953 122.062 40.3229H117.783C117.848 40.8077 118.056 41.1937 118.406 41.4807C118.764 41.7614 119.203 41.9018 119.722 41.9018C120.093 41.9018 120.411 41.8285 120.677 41.6817C120.95 41.5286 121.155 41.3308 121.291 41.0884L121.856 41.4138C121.642 41.7519 121.35 42.0198 120.979 42.2176C120.609 42.4153 120.186 42.5142 119.713 42.5142C118.946 42.5142 118.322 42.2782 117.842 41.8061C117.361 41.334 117.12 40.7343 117.12 40.0071C117.12 39.2926 117.357 38.6961 117.832 38.2177C118.306 37.7393 118.916 37.5 119.664 37.5ZM119.664 38.1124C119.157 38.1124 118.731 38.2623 118.387 38.5621C118.05 38.8556 117.848 39.2384 117.783 39.7105H121.418C121.353 39.2065 121.155 38.8141 120.823 38.5334C120.492 38.2528 120.105 38.1124 119.664 38.1124Z" fill="#3D464D"/>
<path d="M129.048 37.6147V38.2272H127.324V42.3993H126.681V38.2272H124.955V37.6147H129.048Z" fill="#3D464D"/>
<path d="M131.893 37.5C132.615 37.5 133.196 37.752 133.637 38.2559C134.086 38.7535 134.31 39.3436 134.31 40.0263C134.31 40.0964 134.303 40.1953 134.291 40.3229H130.012C130.077 40.8077 130.285 41.1937 130.636 41.4807C130.993 41.7614 131.432 41.9018 131.951 41.9018C132.322 41.9018 132.64 41.8285 132.907 41.6817C133.179 41.5286 133.384 41.3308 133.521 41.0884L134.086 41.4138C133.872 41.7519 133.579 42.0198 133.209 42.2176C132.838 42.4153 132.416 42.5142 131.942 42.5142C131.175 42.5142 130.552 42.2782 130.071 41.8061C129.59 41.334 129.35 40.7343 129.35 40.0071C129.35 39.2926 129.587 38.6961 130.061 38.2177C130.535 37.7393 131.146 37.5 131.893 37.5ZM131.893 38.1124C131.386 38.1124 130.961 38.2623 130.616 38.5621C130.279 38.8556 130.077 39.2384 130.012 39.7105H133.647C133.583 39.2065 133.384 38.8141 133.053 38.5334C132.721 38.2528 132.335 38.1124 131.893 38.1124Z" fill="#3D464D"/>
<path d="M139.236 42.3993H138.466L136.946 40.4281L135.426 42.3993H134.655L136.566 39.9209L134.782 37.6147H135.552L136.946 39.4233L138.339 37.6147H139.109L137.335 39.9209L139.236 42.3993Z" fill="#3D464D"/>
<path d="M143.561 37.6147H144.204V42.3993H143.561V40.3133H140.754V42.3993H140.111V37.6147H140.754V39.7008H143.561V37.6147Z" fill="#3D464D"/>
<path d="M149.647 41.7965C149.154 42.275 148.55 42.5142 147.834 42.5142C147.12 42.5142 146.512 42.275 146.012 41.7965C145.519 41.3117 145.271 40.7152 145.271 40.0071C145.271 39.299 145.519 38.7057 146.012 38.2272C146.512 37.7424 147.12 37.5 147.834 37.5C148.55 37.5 149.154 37.7424 149.647 38.2272C150.147 38.7057 150.398 39.299 150.398 40.0071C150.398 40.7152 150.147 41.3117 149.647 41.7965ZM146.47 41.3564C146.841 41.72 147.295 41.9018 147.834 41.9018C148.374 41.9018 148.829 41.72 149.199 41.3564C149.57 40.9863 149.755 40.5366 149.755 40.0071C149.755 39.4776 149.57 39.031 149.199 38.6674C148.829 38.2975 148.374 38.1124 147.834 38.1124C147.295 38.1124 146.841 38.2975 146.47 38.6674C146.1 39.031 145.914 39.4776 145.914 40.0071C145.914 40.5366 146.1 40.9863 146.47 41.3564Z" fill="#3D464D"/>
<path d="M155.279 37.6147V42.3994H154.636V38.2272H152.433V40.3611C152.433 41.1585 152.277 41.7072 151.966 42.007C151.661 42.3068 151.238 42.4376 150.699 42.3994V41.806C151.069 41.8443 151.342 41.7582 151.517 41.5477C151.7 41.3371 151.79 40.9416 151.79 40.3611V37.6147H155.279Z" fill="#3D464D"/>
<path d="M160.725 41.7965C160.231 42.275 159.627 42.5142 158.912 42.5142C158.198 42.5142 157.59 42.275 157.09 41.7965C156.596 41.3117 156.349 40.7152 156.349 40.0071C156.349 39.299 156.596 38.7057 157.09 38.2272C157.59 37.7424 158.198 37.5 158.912 37.5C159.627 37.5 160.231 37.7424 160.725 38.2272C161.225 38.7057 161.475 39.299 161.475 40.0071C161.475 40.7152 161.225 41.3117 160.725 41.7965ZM157.548 41.3564C157.918 41.72 158.373 41.9018 158.912 41.9018C159.452 41.9018 159.906 41.72 160.276 41.3564C160.647 40.9863 160.832 40.5366 160.832 40.0071C160.832 39.4776 160.647 39.031 160.276 38.6674C159.906 38.2975 159.452 38.1124 158.912 38.1124C158.373 38.1124 157.918 38.2975 157.548 38.6674C157.178 39.031 156.993 39.4776 156.993 40.0071C156.993 40.5366 157.178 40.9863 157.548 41.3564Z" fill="#3D464D"/>
<path d="M165.67 37.6147V38.2272H163.195V42.3993H162.552V37.6147H165.67Z" fill="#3D464D"/>
<path d="M170.001 37.6147H170.547V42.3993H169.904V38.7152L167 42.3993H166.454V37.6147H167.097V41.2989L170.001 37.6147Z" fill="#3D464D"/>
<path d="M175.454 37.6147H176V42.3993H175.357V38.7152L172.453 42.3993H171.907V37.6147H172.55V41.2989L175.454 37.6147Z" fill="#3D464D"/>
</svg>
