<svg width="19" height="22" viewBox="0 0 19 22" fill="none" xmlns="http://www.w3.org/2000/svg">
<path d="M9.50008 10.384C10.1303 10.384 10.7464 10.1961 11.2704 9.84389C11.7943 9.49172 12.2027 8.99119 12.4436 8.40562C12.6846 7.82006 12.7475 7.17578 12.6242 6.5543C12.5009 5.93282 12.1971 5.36207 11.7511 4.91427C11.3052 4.46647 10.7371 4.16174 10.1189 4.03865C9.50064 3.91555 8.85998 3.97961 8.27796 4.22273C7.69594 4.46584 7.19872 4.87709 6.8492 5.40443C6.49969 5.93177 6.31359 6.55151 6.31446 7.18523C6.31562 8.03401 6.65175 8.84763 7.24905 9.44739C7.84635 10.0472 8.65596 10.384 9.50008 10.384ZM9.50008 5.57043C9.81694 5.5739 10.1257 5.67155 10.3875 5.85109C10.6493 6.03062 10.8524 6.28402 10.9712 6.57937C11.0901 6.87473 11.1194 7.19884 11.0555 7.51091C10.9916 7.82299 10.8373 8.10907 10.612 8.33314C10.3867 8.55722 10.1005 8.70928 9.7895 8.77017C9.47847 8.83106 9.15647 8.79808 8.86404 8.67535C8.57161 8.55263 8.32182 8.34567 8.14612 8.08051C7.97042 7.81535 7.87666 7.50386 7.87664 7.18523C7.87663 6.97168 7.91874 6.76025 8.00054 6.56318C8.08234 6.36611 8.2022 6.18731 8.35318 6.03713C8.50416 5.88695 8.68327 5.76837 8.88014 5.68826C9.07701 5.60815 9.28772 5.5681 9.50008 5.57043Z" fill="#165DED"/>
<path d="M18.9905 21.12L18.2028 14.08C18.1813 13.8863 18.0895 13.7074 17.945 13.5775C17.8005 13.4476 17.6134 13.3759 17.4196 13.376H15.1222C16.4523 11.8436 17.1672 9.86798 17.1276 7.83438C17.0879 5.80078 16.2966 3.85489 14.9078 2.37601C14.2124 1.63493 13.3738 1.04451 12.4434 0.640965C11.513 0.237422 10.5104 0.0292664 9.49706 0.0292664C8.48377 0.0292664 7.48116 0.237422 6.55074 0.640965C5.62031 1.04451 4.78169 1.63493 4.08631 2.37601C2.69905 3.85592 1.90912 5.80195 1.87029 7.83526C1.83147 9.86857 2.54653 11.8437 3.87626 13.376H1.57894C1.38489 13.3767 1.19778 13.4487 1.05274 13.5783C0.907711 13.7079 0.814735 13.8863 0.79128 14.08L-0.000751016 21.12C-0.0124055 21.231 -0.00071703 21.3433 0.033556 21.4495C0.067829 21.5556 0.123921 21.6534 0.198192 21.7364C0.272464 21.8194 0.363255 21.8857 0.464676 21.9311C0.566096 21.9765 0.67588 22 0.786904 22H18.2072C18.3183 22.0008 18.4283 21.9778 18.5298 21.9326C18.6314 21.8873 18.7222 21.8209 18.7963 21.7377C18.8704 21.6545 18.926 21.5564 18.9595 21.4499C18.993 21.3434 19.0035 21.2309 18.9905 21.12ZM5.22403 3.44962C5.77201 2.86233 6.43391 2.39424 7.16885 2.07425C7.9038 1.75426 8.69618 1.58917 9.49706 1.58917C10.2979 1.58917 11.0903 1.75426 11.8253 2.07425C12.5602 2.39424 13.2221 2.86233 13.7701 3.44962C14.919 4.66968 15.5592 6.28602 15.5592 7.96621C15.5592 9.64641 14.919 11.2627 13.7701 12.4828L9.49925 16.962L5.22403 12.4784C4.07742 11.2581 3.43861 9.64285 3.43861 7.96402C3.43861 6.28518 4.07742 4.66996 5.22403 3.44962ZM1.67083 20.4116L2.28345 14.9336H5.37719L8.93039 18.6604C9.00423 18.7371 9.09264 18.798 9.19036 18.8396C9.28808 18.8812 9.39312 18.9027 9.49925 18.9027C9.60537 18.9027 9.71042 18.8812 9.80814 18.8396C9.90586 18.798 9.99427 18.7371 10.0681 18.6604L13.6169 14.9336H16.715L17.3233 20.4116H1.67083Z" fill="#165DED"/>
</svg>
