<svg width="15" height="15" viewBox="0 0 15 15" fill="none" xmlns="http://www.w3.org/2000/svg">
<path d="M7.49942 6.10352e-05C3.36387 6.10352e-05 -0.000506176 3.36443 -0.000506176 7.49996C-0.000506176 9.02636 0.451926 10.483 1.31103 11.7332L0.0543084 14.2466C-0.0401449 14.4352 -0.0112582 14.662 0.127316 14.8214C0.227922 14.9369 0.372034 14.9999 0.520012 14.9999C0.575852 14.9999 0.631985 14.9911 0.686507 14.9726L3.68965 13.9584C4.84151 14.6406 6.15337 14.9999 7.49933 14.9999C11.6349 14.9999 14.9993 11.6355 14.9993 7.49996C14.9993 3.3644 11.6349 6.10352e-05 7.49942 6.10352e-05ZM4.00975 5.50589C4.00975 4.68121 4.68062 4.01031 5.50532 4.01031C6.33 4.01031 7.0009 4.68118 7.0009 5.50589C7.0009 6.3306 6.33003 7.00147 5.50532 7.00147C4.68062 7.00144 4.00975 6.33057 4.00975 5.50589ZM5.73674 9.96793C5.63936 10.0653 5.5118 10.114 5.38427 10.114C5.25674 10.114 5.12915 10.0653 5.03183 9.96793C4.83712 9.7732 4.83712 9.4577 5.03183 9.26299L9.26181 5.03269C9.45654 4.83795 9.77204 4.83795 9.96675 5.03269C10.1615 5.2274 10.1615 5.54292 9.96675 5.73763L5.73674 9.96793ZM9.49349 10.9896C8.66881 10.9896 7.99791 10.3188 7.99791 9.49405C7.99791 8.66935 8.66878 7.99848 9.49349 7.99848C10.3182 7.99848 10.9891 8.66935 10.9891 9.49405C10.9891 10.3188 10.3182 10.9896 9.49349 10.9896Z" fill="white"/>
</svg>
