<svg width="20" height="20" viewBox="0 0 20 20" fill="none" xmlns="http://www.w3.org/2000/svg">
<path d="M17.2865 0.901043C16.8281 0.901043 16.4531 1.27604 16.4531 1.73438V2.42709C14.6615 0.869793 12.3802 0 9.94792 0C4.46354 0 0 4.47917 0 9.98439C0 10.4427 0.375 10.8177 0.833333 10.8177C1.29167 10.8177 1.66667 10.4427 1.66667 9.98439C1.66667 5.39584 5.38021 1.66667 9.94792 1.66667C11.9531 1.66667 13.8333 2.375 15.3177 3.65105H14.5521C14.0937 3.65105 13.7187 4.02605 13.7187 4.48438C13.7187 4.94271 14.0937 5.31771 14.5521 5.31771H17.2865C17.7448 5.31771 18.1198 4.94271 18.1198 4.48438V1.73438C18.1198 1.27604 17.7448 0.901043 17.2865 0.901043Z" fill="#165DED"/>
<path d="M19.1667 9.18229C18.7083 9.18229 18.3333 9.55729 18.3333 10.0156C18.3333 14.599 14.6198 18.3333 10.0521 18.3333C8.07292 18.3333 6.20833 17.6406 4.73438 16.3958H5.53646C5.99479 16.3958 6.36979 16.0208 6.36979 15.5625C6.36979 15.1042 5.99479 14.7292 5.53646 14.7292H2.80208C2.79688 14.7292 2.78646 14.7292 2.78125 14.7292C2.75 14.7292 2.71875 14.7344 2.6875 14.7396C2.66667 14.7448 2.64062 14.7448 2.61979 14.75C2.59375 14.7552 2.56771 14.7656 2.53646 14.776C2.51042 14.7865 2.48438 14.7917 2.46354 14.8021C2.44271 14.8125 2.41667 14.8281 2.39583 14.8385C2.36979 14.8542 2.34375 14.8698 2.31771 14.8854C2.3125 14.8906 2.30208 14.8906 2.29687 14.8958C2.28125 14.9062 2.27083 14.9219 2.26042 14.9323C2.23958 14.9531 2.21875 14.9687 2.19792 14.9948C2.17708 15.0156 2.16146 15.0365 2.14583 15.0573C2.13021 15.0781 2.11458 15.099 2.09896 15.1198C2.08333 15.1406 2.07292 15.1667 2.05729 15.1927C2.04688 15.2187 2.03646 15.2396 2.02604 15.2656C2.01563 15.2917 2.01042 15.3177 2 15.3437C1.99479 15.3698 1.98437 15.3958 1.98437 15.4219C1.97917 15.4531 1.97917 15.4792 1.97396 15.5104C1.97396 15.526 1.96875 15.5417 1.96875 15.5625V18.3073C1.96875 18.7656 2.34375 19.1406 2.80208 19.1406C3.26042 19.1406 3.63542 18.7656 3.63542 18.3073V17.6458C5.41146 19.1562 7.66146 20 10.0521 20C15.5365 20 20 15.5208 20 10.0156C20 9.55729 19.625 9.18229 19.1667 9.18229Z" fill="#165DED"/>
</svg>
